<svg xmlns="http://www.w3.org/2000/svg" viewBox="0 0 465.19 465.19"><defs><style>.cls-1{opacity:0.8;}.cls-2{fill:#f9d961;}.cls-3{fill:#bc76b0;}.cls-4{fill:#aac7e8;}</style></defs><g id="Layer_2" data-name="Layer 2"><g id="Layer_25" data-name="Layer 25"><g class="cls-1"><rect class="cls-2" x="387.74" y="258.67" width="8.6" height="8.6"/><rect class="cls-2" x="387.74" y="275.88" width="8.6" height="8.61"/><rect class="cls-2" x="396.35" y="241.47" width="8.6" height="8.6"/><rect class="cls-2" x="396.35" y="250.07" width="8.6" height="8.6"/><rect class="cls-2" x="396.35" y="284.49" width="8.6" height="8.6"/><rect class="cls-2" x="396.35" y="293.09" width="8.6" height="8.6"/><rect class="cls-2" x="404.95" y="241.47" width="8.6" height="8.6"/><rect class="cls-2" x="404.95" y="267.28" width="8.6" height="8.6"/><rect class="cls-2" x="404.95" y="293.09" width="8.6" height="8.6"/><rect class="cls-2" x="413.56" y="232.86" width="8.6" height="8.6"/><rect class="cls-2" x="413.56" y="258.67" width="8.6" height="8.6"/><rect class="cls-2" x="413.56" y="275.88" width="8.6" height="8.61"/><rect class="cls-2" x="413.56" y="301.7" width="8.6" height="8.6"/><rect class="cls-2" x="422.16" y="250.07" width="8.61" height="8.6"/><rect class="cls-2" x="422.16" y="267.28" width="8.61" height="8.6"/><rect class="cls-2" x="422.16" y="284.49" width="8.61" height="8.6"/><rect class="cls-2" x="430.77" y="232.86" width="8.6" height="8.6"/><rect class="cls-2" x="430.77" y="258.67" width="8.6" height="8.6"/><rect class="cls-2" x="430.77" y="275.88" width="8.6" height="8.61"/><rect class="cls-2" x="430.77" y="301.7" width="8.6" height="8.6"/><rect class="cls-2" x="439.37" y="241.47" width="8.6" height="8.6"/><rect class="cls-2" x="439.37" y="267.28" width="8.6" height="8.6"/><rect class="cls-2" x="439.37" y="293.09" width="8.6" height="8.6"/><rect class="cls-2" x="447.98" y="241.47" width="8.6" height="8.6"/><rect class="cls-2" x="447.98" y="250.07" width="8.6" height="8.6"/><rect class="cls-2" x="447.98" y="284.49" width="8.6" height="8.6"/><rect class="cls-2" x="447.98" y="293.09" width="8.6" height="8.6"/><rect class="cls-2" x="456.58" y="258.67" width="8.6" height="8.6"/><rect class="cls-2" x="456.58" y="275.88" width="8.6" height="8.61"/></g><g class="cls-1"><rect class="cls-2" x="310.3" y="413.56" width="8.6" height="8.6"/><rect class="cls-2" x="310.3" y="430.77" width="8.6" height="8.61"/><rect class="cls-2" x="318.9" y="396.35" width="8.6" height="8.6"/><rect class="cls-2" x="318.9" y="404.95" width="8.6" height="8.6"/><rect class="cls-2" x="318.9" y="439.37" width="8.6" height="8.6"/><rect class="cls-2" x="318.9" y="447.98" width="8.6" height="8.6"/><rect class="cls-2" x="327.51" y="396.35" width="8.6" height="8.6"/><rect class="cls-2" x="327.51" y="422.16" width="8.6" height="8.6"/><rect class="cls-2" x="327.51" y="447.98" width="8.6" height="8.6"/><rect class="cls-2" x="336.11" y="387.75" width="8.6" height="8.6"/><rect class="cls-2" x="336.11" y="413.56" width="8.6" height="8.6"/><rect class="cls-2" x="336.11" y="430.77" width="8.6" height="8.61"/><rect class="cls-2" x="336.11" y="456.58" width="8.6" height="8.6"/><rect class="cls-2" x="344.72" y="404.95" width="8.61" height="8.6"/><rect class="cls-2" x="344.72" y="422.16" width="8.61" height="8.6"/><rect class="cls-2" x="344.72" y="439.37" width="8.61" height="8.6"/><rect class="cls-2" x="353.32" y="387.75" width="8.6" height="8.6"/><rect class="cls-2" x="353.32" y="413.56" width="8.6" height="8.6"/><rect class="cls-2" x="353.32" y="430.77" width="8.6" height="8.61"/><rect class="cls-2" x="353.32" y="456.58" width="8.6" height="8.6"/><rect class="cls-2" x="361.93" y="396.35" width="8.6" height="8.6"/><rect class="cls-2" x="361.93" y="422.16" width="8.6" height="8.6"/><rect class="cls-2" x="361.93" y="447.98" width="8.6" height="8.6"/><rect class="cls-2" x="370.53" y="396.35" width="8.6" height="8.6"/><rect class="cls-2" x="370.53" y="404.95" width="8.6" height="8.6"/><rect class="cls-2" x="370.53" y="439.37" width="8.6" height="8.6"/><rect class="cls-2" x="370.53" y="447.98" width="8.6" height="8.6"/><rect class="cls-2" x="379.14" y="413.56" width="8.6" height="8.6"/><rect class="cls-2" x="379.14" y="430.77" width="8.6" height="8.61"/></g><g class="cls-1"><rect class="cls-3" x="387.74" y="336.12" width="8.61" height="8.6"/><rect class="cls-3" x="387.74" y="353.33" width="8.61" height="8.6"/><rect class="cls-3" x="396.35" y="318.91" width="8.6" height="8.61"/><rect class="cls-3" x="396.35" y="344.72" width="8.6" height="8.6"/><rect class="cls-3" x="396.35" y="370.54" width="8.6" height="8.61"/><rect class="cls-3" x="404.95" y="327.51" width="8.6" height="8.6"/><rect class="cls-3" x="404.95" y="344.72" width="8.6" height="8.6"/><rect class="cls-3" x="404.95" y="361.93" width="8.6" height="8.6"/><rect class="cls-3" x="413.56" y="310.3" width="8.6" height="8.6"/><rect class="cls-3" x="413.56" y="336.12" width="8.6" height="8.6"/><rect class="cls-3" x="413.56" y="353.33" width="8.6" height="8.6"/><rect class="cls-3" x="413.56" y="379.14" width="8.6" height="8.6"/><rect class="cls-3" x="422.16" y="318.91" width="8.6" height="8.61"/><rect class="cls-3" x="422.16" y="327.51" width="8.6" height="8.6"/><rect class="cls-3" x="422.16" y="361.93" width="8.6" height="8.6"/><rect class="cls-3" x="422.16" y="370.54" width="8.6" height="8.61"/><rect class="cls-3" x="430.77" y="310.3" width="8.61" height="8.6"/><rect class="cls-3" x="430.77" y="336.12" width="8.61" height="8.6"/><rect class="cls-3" x="430.77" y="353.33" width="8.61" height="8.6"/><rect class="cls-3" x="430.77" y="379.14" width="8.61" height="8.6"/><rect class="cls-3" x="439.37" y="327.51" width="8.6" height="8.6"/><rect class="cls-3" x="439.37" y="344.72" width="8.6" height="8.6"/><rect class="cls-3" x="439.37" y="361.93" width="8.6" height="8.6"/><rect class="cls-3" x="447.98" y="318.91" width="8.6" height="8.61"/><rect class="cls-3" x="447.98" y="344.72" width="8.6" height="8.6"/><rect class="cls-3" x="447.98" y="370.54" width="8.6" height="8.61"/><rect class="cls-3" x="456.58" y="336.12" width="8.6" height="8.6"/><rect class="cls-3" x="456.58" y="353.33" width="8.6" height="8.6"/></g><g class="cls-1"><rect class="cls-3" x="232.86" y="413.56" width="8.61" height="8.6"/><rect class="cls-3" x="232.86" y="430.77" width="8.61" height="8.6"/><rect class="cls-3" x="241.46" y="396.35" width="8.6" height="8.61"/><rect class="cls-3" x="241.46" y="422.16" width="8.6" height="8.6"/><rect class="cls-3" x="241.46" y="447.98" width="8.6" height="8.61"/><rect class="cls-3" x="250.07" y="404.95" width="8.6" height="8.6"/><rect class="cls-3" x="250.07" y="422.16" width="8.6" height="8.6"/><rect class="cls-3" x="250.07" y="439.37" width="8.6" height="8.6"/><rect class="cls-3" x="258.67" y="387.74" width="8.6" height="8.6"/><rect class="cls-3" x="258.67" y="413.56" width="8.6" height="8.6"/><rect class="cls-3" x="258.67" y="430.77" width="8.6" height="8.6"/><rect class="cls-3" x="258.67" y="456.58" width="8.6" height="8.6"/><rect class="cls-3" x="267.28" y="396.35" width="8.6" height="8.61"/><rect class="cls-3" x="267.28" y="404.95" width="8.6" height="8.6"/><rect class="cls-3" x="267.28" y="439.37" width="8.6" height="8.6"/><rect class="cls-3" x="267.28" y="447.98" width="8.6" height="8.61"/><rect class="cls-3" x="275.88" y="387.74" width="8.61" height="8.6"/><rect class="cls-3" x="275.88" y="413.56" width="8.61" height="8.6"/><rect class="cls-3" x="275.88" y="430.77" width="8.61" height="8.6"/><rect class="cls-3" x="275.88" y="456.58" width="8.61" height="8.6"/><rect class="cls-3" x="284.49" y="404.95" width="8.6" height="8.6"/><rect class="cls-3" x="284.49" y="422.16" width="8.6" height="8.6"/><rect class="cls-3" x="284.49" y="439.37" width="8.6" height="8.6"/><rect class="cls-3" x="293.09" y="396.35" width="8.6" height="8.61"/><rect class="cls-3" x="293.09" y="422.16" width="8.6" height="8.6"/><rect class="cls-3" x="293.09" y="447.98" width="8.6" height="8.61"/><rect class="cls-3" x="301.7" y="413.56" width="8.6" height="8.6"/><rect class="cls-3" x="301.7" y="430.77" width="8.6" height="8.6"/></g><g class="cls-1"><rect class="cls-4" x="387.74" y="422.16" width="8.61" height="8.6"/><rect class="cls-4" x="396.35" y="404.95" width="8.6" height="8.61"/><rect class="cls-4" x="396.35" y="439.37" width="8.6" height="8.6"/><rect class="cls-4" x="404.95" y="396.35" width="8.6" height="8.6"/><rect class="cls-4" x="404.95" y="413.56" width="8.6" height="8.6"/><rect class="cls-4" x="404.95" y="422.16" width="8.6" height="8.6"/><rect class="cls-4" x="404.95" y="430.77" width="8.6" height="8.6"/><rect class="cls-4" x="404.95" y="447.98" width="8.6" height="8.61"/><rect class="cls-4" x="413.56" y="404.95" width="8.6" height="8.61"/><rect class="cls-4" x="413.56" y="422.16" width="8.6" height="8.6"/><rect class="cls-4" x="413.56" y="439.37" width="8.6" height="8.6"/><rect class="cls-4" x="422.16" y="387.74" width="8.6" height="8.6"/><rect class="cls-4" x="422.16" y="404.95" width="8.6" height="8.61"/><rect class="cls-4" x="422.16" y="413.56" width="8.6" height="8.6"/><rect class="cls-4" x="422.16" y="430.77" width="8.6" height="8.6"/><rect class="cls-4" x="422.16" y="439.37" width="8.6" height="8.6"/><rect class="cls-4" x="422.16" y="456.58" width="8.6" height="8.6"/><rect class="cls-4" x="430.77" y="404.95" width="8.61" height="8.61"/><rect class="cls-4" x="430.77" y="422.16" width="8.61" height="8.6"/><rect class="cls-4" x="430.77" y="439.37" width="8.61" height="8.6"/><rect class="cls-4" x="439.37" y="396.35" width="8.6" height="8.6"/><rect class="cls-4" x="439.37" y="413.56" width="8.6" height="8.6"/><rect class="cls-4" x="439.37" y="422.16" width="8.6" height="8.6"/><rect class="cls-4" x="439.37" y="430.77" width="8.6" height="8.6"/><rect class="cls-4" x="439.37" y="447.98" width="8.6" height="8.61"/><rect class="cls-4" x="447.98" y="404.95" width="8.6" height="8.61"/><rect class="cls-4" x="447.98" y="439.37" width="8.6" height="8.6"/><rect class="cls-4" x="456.58" y="422.16" width="8.6" height="8.6"/></g><g class="cls-1"><rect class="cls-2" x="197.91" y="387.75" width="8.6" height="8.6"/><rect class="cls-2" x="180.7" y="387.75" width="8.61" height="8.6"/><rect class="cls-2" x="215.12" y="396.35" width="8.6" height="8.6"/><rect class="cls-2" x="206.51" y="396.35" width="8.6" height="8.6"/><rect class="cls-2" x="172.09" y="396.35" width="8.6" height="8.6"/><rect class="cls-2" x="163.49" y="396.35" width="8.6" height="8.6"/><rect class="cls-2" x="215.12" y="404.96" width="8.6" height="8.6"/><rect class="cls-2" x="189.3" y="404.96" width="8.6" height="8.6"/><rect class="cls-2" x="163.49" y="404.96" width="8.6" height="8.6"/><rect class="cls-2" x="223.72" y="413.56" width="8.6" height="8.6"/><rect class="cls-2" x="197.91" y="413.56" width="8.6" height="8.6"/><rect class="cls-2" x="180.7" y="413.56" width="8.61" height="8.6"/><rect class="cls-2" x="154.88" y="413.56" width="8.6" height="8.6"/><rect class="cls-2" x="206.51" y="422.16" width="8.6" height="8.61"/><rect class="cls-2" x="189.3" y="422.16" width="8.6" height="8.61"/><rect class="cls-2" x="172.09" y="422.16" width="8.6" height="8.61"/><rect class="cls-2" x="223.72" y="430.77" width="8.6" height="8.6"/><rect class="cls-2" x="197.91" y="430.77" width="8.6" height="8.6"/><rect class="cls-2" x="180.7" y="430.77" width="8.61" height="8.6"/><rect class="cls-2" x="154.88" y="430.77" width="8.6" height="8.6"/><rect class="cls-2" x="215.12" y="439.38" width="8.6" height="8.6"/><rect class="cls-2" x="189.3" y="439.38" width="8.6" height="8.6"/><rect class="cls-2" x="163.49" y="439.38" width="8.6" height="8.6"/><rect class="cls-2" x="215.12" y="447.98" width="8.6" height="8.6"/><rect class="cls-2" x="206.51" y="447.98" width="8.6" height="8.6"/><rect class="cls-2" x="172.09" y="447.98" width="8.6" height="8.6"/><rect class="cls-2" x="163.49" y="447.98" width="8.6" height="8.6"/><rect class="cls-2" x="197.91" y="456.58" width="8.6" height="8.6"/><rect class="cls-2" x="180.7" y="456.58" width="8.61" height="8.6"/></g><g class="cls-1"><rect class="cls-2" x="43.02" y="310.3" width="8.6" height="8.6"/><rect class="cls-2" x="25.81" y="310.3" width="8.61" height="8.6"/><rect class="cls-2" x="60.23" y="318.91" width="8.6" height="8.6"/><rect class="cls-2" x="51.63" y="318.91" width="8.6" height="8.6"/><rect class="cls-2" x="17.21" y="318.91" width="8.6" height="8.6"/><rect class="cls-2" x="8.6" y="318.91" width="8.6" height="8.6"/><rect class="cls-2" x="60.23" y="327.51" width="8.6" height="8.6"/><rect class="cls-2" x="34.42" y="327.51" width="8.6" height="8.6"/><rect class="cls-2" x="8.6" y="327.51" width="8.6" height="8.6"/><rect class="cls-2" x="68.84" y="336.11" width="8.6" height="8.6"/><rect class="cls-2" x="43.02" y="336.11" width="8.6" height="8.6"/><rect class="cls-2" x="25.81" y="336.11" width="8.61" height="8.6"/><rect class="cls-2" y="336.11" width="8.6" height="8.6"/><rect class="cls-2" x="51.63" y="344.72" width="8.6" height="8.61"/><rect class="cls-2" x="34.42" y="344.72" width="8.6" height="8.61"/><rect class="cls-2" x="17.21" y="344.72" width="8.6" height="8.61"/><rect class="cls-2" x="68.84" y="353.33" width="8.6" height="8.6"/><rect class="cls-2" x="43.02" y="353.33" width="8.6" height="8.6"/><rect class="cls-2" x="25.81" y="353.33" width="8.61" height="8.6"/><rect class="cls-2" y="353.33" width="8.6" height="8.6"/><rect class="cls-2" x="60.23" y="361.93" width="8.6" height="8.6"/><rect class="cls-2" x="34.42" y="361.93" width="8.6" height="8.6"/><rect class="cls-2" x="8.6" y="361.93" width="8.6" height="8.6"/><rect class="cls-2" x="60.23" y="370.53" width="8.6" height="8.6"/><rect class="cls-2" x="51.63" y="370.53" width="8.6" height="8.6"/><rect class="cls-2" x="17.21" y="370.53" width="8.6" height="8.6"/><rect class="cls-2" x="8.6" y="370.53" width="8.6" height="8.6"/><rect class="cls-2" x="43.02" y="379.14" width="8.6" height="8.6"/><rect class="cls-2" x="25.81" y="379.14" width="8.61" height="8.6"/></g><g class="cls-1"><rect class="cls-3" x="120.46" y="387.75" width="8.6" height="8.61"/><rect class="cls-3" x="103.26" y="387.75" width="8.6" height="8.61"/><rect class="cls-3" x="137.67" y="396.35" width="8.61" height="8.6"/><rect class="cls-3" x="111.86" y="396.35" width="8.6" height="8.6"/><rect class="cls-3" x="86.04" y="396.35" width="8.61" height="8.6"/><rect class="cls-3" x="129.07" y="404.96" width="8.6" height="8.6"/><rect class="cls-3" x="111.86" y="404.96" width="8.6" height="8.6"/><rect class="cls-3" x="94.65" y="404.96" width="8.6" height="8.6"/><rect class="cls-3" x="146.28" y="413.56" width="8.6" height="8.6"/><rect class="cls-3" x="120.46" y="413.56" width="8.6" height="8.6"/><rect class="cls-3" x="103.26" y="413.56" width="8.6" height="8.6"/><rect class="cls-3" x="77.44" y="413.56" width="8.6" height="8.6"/><rect class="cls-3" x="137.67" y="422.17" width="8.61" height="8.6"/><rect class="cls-3" x="129.07" y="422.17" width="8.6" height="8.6"/><rect class="cls-3" x="94.65" y="422.17" width="8.6" height="8.6"/><rect class="cls-3" x="86.04" y="422.17" width="8.61" height="8.6"/><rect class="cls-3" x="146.28" y="430.77" width="8.6" height="8.61"/><rect class="cls-3" x="120.46" y="430.77" width="8.6" height="8.61"/><rect class="cls-3" x="103.26" y="430.77" width="8.6" height="8.61"/><rect class="cls-3" x="77.44" y="430.77" width="8.6" height="8.61"/><rect class="cls-3" x="129.07" y="439.38" width="8.6" height="8.6"/><rect class="cls-3" x="111.86" y="439.38" width="8.6" height="8.6"/><rect class="cls-3" x="94.65" y="439.38" width="8.6" height="8.6"/><rect class="cls-3" x="137.67" y="447.98" width="8.61" height="8.6"/><rect class="cls-3" x="111.86" y="447.98" width="8.6" height="8.6"/><rect class="cls-3" x="86.04" y="447.98" width="8.61" height="8.6"/><rect class="cls-3" x="120.46" y="456.59" width="8.6" height="8.6"/><rect class="cls-3" x="103.26" y="456.59" width="8.6" height="8.6"/></g><g class="cls-1"><rect class="cls-3" x="43.02" y="232.86" width="8.6" height="8.61"/><rect class="cls-3" x="25.82" y="232.86" width="8.6" height="8.61"/><rect class="cls-3" x="60.23" y="241.47" width="8.61" height="8.6"/><rect class="cls-3" x="34.42" y="241.47" width="8.6" height="8.6"/><rect class="cls-3" x="8.6" y="241.47" width="8.61" height="8.6"/><rect class="cls-3" x="51.63" y="250.07" width="8.6" height="8.6"/><rect class="cls-3" x="34.42" y="250.07" width="8.6" height="8.6"/><rect class="cls-3" x="17.21" y="250.07" width="8.6" height="8.6"/><rect class="cls-3" x="68.84" y="258.67" width="8.6" height="8.6"/><rect class="cls-3" x="43.02" y="258.67" width="8.6" height="8.6"/><rect class="cls-3" x="25.82" y="258.67" width="8.6" height="8.6"/><rect class="cls-3" y="258.67" width="8.6" height="8.6"/><rect class="cls-3" x="60.23" y="267.28" width="8.61" height="8.6"/><rect class="cls-3" x="51.63" y="267.28" width="8.6" height="8.6"/><rect class="cls-3" x="17.21" y="267.28" width="8.6" height="8.6"/><rect class="cls-3" x="8.6" y="267.28" width="8.61" height="8.6"/><rect class="cls-3" x="68.84" y="275.88" width="8.6" height="8.61"/><rect class="cls-3" x="43.02" y="275.88" width="8.6" height="8.61"/><rect class="cls-3" x="25.82" y="275.88" width="8.6" height="8.61"/><rect class="cls-3" y="275.88" width="8.6" height="8.61"/><rect class="cls-3" x="51.63" y="284.49" width="8.6" height="8.6"/><rect class="cls-3" x="34.42" y="284.49" width="8.6" height="8.6"/><rect class="cls-3" x="17.21" y="284.49" width="8.6" height="8.6"/><rect class="cls-3" x="60.23" y="293.09" width="8.61" height="8.6"/><rect class="cls-3" x="34.42" y="293.09" width="8.6" height="8.6"/><rect class="cls-3" x="8.6" y="293.09" width="8.61" height="8.6"/><rect class="cls-3" x="43.02" y="301.7" width="8.6" height="8.6"/><rect class="cls-3" x="25.82" y="301.7" width="8.6" height="8.6"/></g><g class="cls-1"><rect class="cls-4" x="34.42" y="387.75" width="8.6" height="8.61"/><rect class="cls-4" x="51.63" y="396.35" width="8.61" height="8.6"/><rect class="cls-4" x="17.21" y="396.35" width="8.6" height="8.6"/><rect class="cls-4" x="60.24" y="404.96" width="8.6" height="8.6"/><rect class="cls-4" x="43.02" y="404.96" width="8.6" height="8.6"/><rect class="cls-4" x="34.42" y="404.96" width="8.6" height="8.6"/><rect class="cls-4" x="25.82" y="404.96" width="8.6" height="8.6"/><rect class="cls-4" x="8.6" y="404.96" width="8.61" height="8.6"/><rect class="cls-4" x="51.63" y="413.56" width="8.61" height="8.6"/><rect class="cls-4" x="34.42" y="413.56" width="8.6" height="8.6"/><rect class="cls-4" x="17.21" y="413.56" width="8.6" height="8.6"/><rect class="cls-4" x="68.84" y="422.17" width="8.6" height="8.6"/><rect class="cls-4" x="51.63" y="422.17" width="8.61" height="8.6"/><rect class="cls-4" x="43.02" y="422.17" width="8.6" height="8.6"/><rect class="cls-4" x="25.82" y="422.17" width="8.6" height="8.6"/><rect class="cls-4" x="17.21" y="422.17" width="8.6" height="8.6"/><rect class="cls-4" y="422.17" width="8.6" height="8.6"/><rect class="cls-4" x="51.63" y="430.77" width="8.61" height="8.61"/><rect class="cls-4" x="34.42" y="430.77" width="8.6" height="8.61"/><rect class="cls-4" x="17.21" y="430.77" width="8.6" height="8.61"/><rect class="cls-4" x="60.24" y="439.38" width="8.6" height="8.6"/><rect class="cls-4" x="43.02" y="439.38" width="8.6" height="8.6"/><rect class="cls-4" x="34.42" y="439.38" width="8.6" height="8.6"/><rect class="cls-4" x="25.82" y="439.38" width="8.6" height="8.6"/><rect class="cls-4" x="8.6" y="439.38" width="8.61" height="8.6"/><rect class="cls-4" x="51.63" y="447.98" width="8.61" height="8.6"/><rect class="cls-4" x="17.21" y="447.98" width="8.6" height="8.6"/><rect class="cls-4" x="34.42" y="456.59" width="8.6" height="8.6"/></g><g class="cls-1"><rect class="cls-2" x="68.84" y="197.91" width="8.6" height="8.6"/><rect class="cls-2" x="68.84" y="180.7" width="8.6" height="8.61"/><rect class="cls-2" x="60.23" y="215.12" width="8.6" height="8.6"/><rect class="cls-2" x="60.23" y="206.52" width="8.6" height="8.6"/><rect class="cls-2" x="60.23" y="172.1" width="8.6" height="8.6"/><rect class="cls-2" x="60.23" y="163.49" width="8.6" height="8.6"/><rect class="cls-2" x="51.63" y="215.12" width="8.6" height="8.6"/><rect class="cls-2" x="51.63" y="189.31" width="8.6" height="8.6"/><rect class="cls-2" x="51.63" y="163.49" width="8.6" height="8.6"/><rect class="cls-2" x="43.03" y="223.72" width="8.6" height="8.6"/><rect class="cls-2" x="43.03" y="197.91" width="8.6" height="8.6"/><rect class="cls-2" x="43.03" y="180.7" width="8.6" height="8.61"/><rect class="cls-2" x="43.03" y="154.89" width="8.6" height="8.6"/><rect class="cls-2" x="34.42" y="206.52" width="8.61" height="8.6"/><rect class="cls-2" x="34.42" y="189.31" width="8.61" height="8.6"/><rect class="cls-2" x="34.42" y="172.1" width="8.61" height="8.6"/><rect class="cls-2" x="25.81" y="223.72" width="8.6" height="8.6"/><rect class="cls-2" x="25.81" y="197.91" width="8.6" height="8.6"/><rect class="cls-2" x="25.81" y="180.7" width="8.6" height="8.61"/><rect class="cls-2" x="25.81" y="154.89" width="8.6" height="8.6"/><rect class="cls-2" x="17.21" y="215.12" width="8.6" height="8.6"/><rect class="cls-2" x="17.21" y="189.31" width="8.6" height="8.6"/><rect class="cls-2" x="17.21" y="163.49" width="8.6" height="8.6"/><rect class="cls-2" x="8.61" y="215.12" width="8.6" height="8.6"/><rect class="cls-2" x="8.61" y="206.52" width="8.6" height="8.6"/><rect class="cls-2" x="8.61" y="172.1" width="8.6" height="8.6"/><rect class="cls-2" x="8.61" y="163.49" width="8.6" height="8.6"/><rect class="cls-2" y="197.91" width="8.6" height="8.6"/><rect class="cls-2" y="180.7" width="8.6" height="8.61"/></g><g class="cls-1"><rect class="cls-2" x="146.28" y="43.03" width="8.6" height="8.6"/><rect class="cls-2" x="146.28" y="25.82" width="8.6" height="8.61"/><rect class="cls-2" x="137.68" y="60.24" width="8.6" height="8.6"/><rect class="cls-2" x="137.68" y="51.63" width="8.6" height="8.6"/><rect class="cls-2" x="137.68" y="17.21" width="8.6" height="8.6"/><rect class="cls-2" x="137.68" y="8.61" width="8.6" height="8.6"/><rect class="cls-2" x="129.08" y="60.24" width="8.6" height="8.6"/><rect class="cls-2" x="129.08" y="34.42" width="8.6" height="8.6"/><rect class="cls-2" x="129.08" y="8.61" width="8.6" height="8.6"/><rect class="cls-2" x="120.47" y="68.84" width="8.6" height="8.6"/><rect class="cls-2" x="120.47" y="43.03" width="8.6" height="8.6"/><rect class="cls-2" x="120.47" y="25.82" width="8.6" height="8.61"/><rect class="cls-2" x="120.47" width="8.6" height="8.6"/><rect class="cls-2" x="111.86" y="51.63" width="8.61" height="8.6"/><rect class="cls-2" x="111.86" y="34.42" width="8.61" height="8.6"/><rect class="cls-2" x="111.86" y="17.21" width="8.61" height="8.6"/><rect class="cls-2" x="103.26" y="68.84" width="8.6" height="8.6"/><rect class="cls-2" x="103.26" y="43.03" width="8.6" height="8.6"/><rect class="cls-2" x="103.26" y="25.82" width="8.6" height="8.61"/><rect class="cls-2" x="103.26" width="8.6" height="8.6"/><rect class="cls-2" x="94.66" y="60.24" width="8.6" height="8.6"/><rect class="cls-2" x="94.66" y="34.42" width="8.6" height="8.6"/><rect class="cls-2" x="94.66" y="8.61" width="8.6" height="8.6"/><rect class="cls-2" x="86.05" y="60.24" width="8.6" height="8.6"/><rect class="cls-2" x="86.05" y="51.63" width="8.6" height="8.6"/><rect class="cls-2" x="86.05" y="17.21" width="8.6" height="8.6"/><rect class="cls-2" x="86.05" y="8.61" width="8.6" height="8.6"/><rect class="cls-2" x="77.45" y="43.03" width="8.6" height="8.6"/><rect class="cls-2" x="77.45" y="25.82" width="8.6" height="8.61"/></g><g class="cls-1"><rect class="cls-3" x="68.84" y="120.47" width="8.61" height="8.6"/><rect class="cls-3" x="68.84" y="103.26" width="8.61" height="8.6"/><rect class="cls-3" x="60.23" y="137.68" width="8.6" height="8.61"/><rect class="cls-3" x="60.23" y="111.86" width="8.6" height="8.6"/><rect class="cls-3" x="60.23" y="86.05" width="8.6" height="8.61"/><rect class="cls-3" x="51.63" y="129.07" width="8.6" height="8.6"/><rect class="cls-3" x="51.63" y="111.86" width="8.6" height="8.6"/><rect class="cls-3" x="51.63" y="94.65" width="8.6" height="8.6"/><rect class="cls-3" x="43.02" y="146.28" width="8.6" height="8.6"/><rect class="cls-3" x="43.02" y="120.47" width="8.6" height="8.6"/><rect class="cls-3" x="43.02" y="103.26" width="8.6" height="8.6"/><rect class="cls-3" x="43.02" y="77.44" width="8.6" height="8.6"/><rect class="cls-3" x="34.42" y="137.68" width="8.6" height="8.61"/><rect class="cls-3" x="34.42" y="129.07" width="8.6" height="8.6"/><rect class="cls-3" x="34.42" y="94.65" width="8.6" height="8.6"/><rect class="cls-3" x="34.42" y="86.05" width="8.6" height="8.61"/><rect class="cls-3" x="25.81" y="146.28" width="8.61" height="8.6"/><rect class="cls-3" x="25.81" y="120.47" width="8.61" height="8.6"/><rect class="cls-3" x="25.81" y="103.26" width="8.61" height="8.6"/><rect class="cls-3" x="25.81" y="77.44" width="8.61" height="8.6"/><rect class="cls-3" x="17.21" y="129.07" width="8.6" height="8.6"/><rect class="cls-3" x="17.21" y="111.86" width="8.6" height="8.6"/><rect class="cls-3" x="17.21" y="94.65" width="8.6" height="8.6"/><rect class="cls-3" x="8.6" y="137.68" width="8.6" height="8.61"/><rect class="cls-3" x="8.6" y="111.86" width="8.6" height="8.6"/><rect class="cls-3" x="8.6" y="86.05" width="8.6" height="8.61"/><rect class="cls-3" y="120.47" width="8.6" height="8.6"/><rect class="cls-3" y="103.26" width="8.6" height="8.6"/></g><g class="cls-1"><rect class="cls-3" x="223.72" y="43.03" width="8.61" height="8.6"/><rect class="cls-3" x="223.72" y="25.82" width="8.61" height="8.6"/><rect class="cls-3" x="215.12" y="60.24" width="8.6" height="8.61"/><rect class="cls-3" x="215.12" y="34.42" width="8.6" height="8.6"/><rect class="cls-3" x="215.12" y="8.61" width="8.6" height="8.61"/><rect class="cls-3" x="206.52" y="51.63" width="8.6" height="8.6"/><rect class="cls-3" x="206.52" y="34.42" width="8.6" height="8.6"/><rect class="cls-3" x="206.52" y="17.21" width="8.6" height="8.6"/><rect class="cls-3" x="197.91" y="68.84" width="8.6" height="8.6"/><rect class="cls-3" x="197.91" y="43.03" width="8.6" height="8.6"/><rect class="cls-3" x="197.91" y="25.82" width="8.6" height="8.6"/><rect class="cls-3" x="197.91" width="8.6" height="8.6"/><rect class="cls-3" x="189.31" y="60.24" width="8.6" height="8.61"/><rect class="cls-3" x="189.31" y="51.63" width="8.6" height="8.6"/><rect class="cls-3" x="189.31" y="17.21" width="8.6" height="8.6"/><rect class="cls-3" x="189.31" y="8.61" width="8.6" height="8.61"/><rect class="cls-3" x="180.7" y="68.84" width="8.61" height="8.6"/><rect class="cls-3" x="180.7" y="43.03" width="8.61" height="8.6"/><rect class="cls-3" x="180.7" y="25.82" width="8.61" height="8.6"/><rect class="cls-3" x="180.7" width="8.61" height="8.6"/><rect class="cls-3" x="172.1" y="51.63" width="8.6" height="8.6"/><rect class="cls-3" x="172.1" y="34.42" width="8.6" height="8.6"/><rect class="cls-3" x="172.1" y="17.21" width="8.6" height="8.6"/><rect class="cls-3" x="163.49" y="60.24" width="8.6" height="8.61"/><rect class="cls-3" x="163.49" y="34.42" width="8.6" height="8.6"/><rect class="cls-3" x="163.49" y="8.61" width="8.6" height="8.61"/><rect class="cls-3" x="154.89" y="43.03" width="8.6" height="8.6"/><rect class="cls-3" x="154.89" y="25.82" width="8.6" height="8.6"/></g><g class="cls-1"><rect class="cls-4" x="68.84" y="34.42" width="8.61" height="8.6"/><rect class="cls-4" x="60.23" y="51.63" width="8.6" height="8.61"/><rect class="cls-4" x="60.23" y="17.21" width="8.6" height="8.6"/><rect class="cls-4" x="51.63" y="60.24" width="8.6" height="8.6"/><rect class="cls-4" x="51.63" y="43.03" width="8.6" height="8.6"/><rect class="cls-4" x="51.63" y="34.42" width="8.6" height="8.6"/><rect class="cls-4" x="51.63" y="25.82" width="8.6" height="8.6"/><rect class="cls-4" x="51.63" y="8.61" width="8.6" height="8.61"/><rect class="cls-4" x="43.02" y="51.63" width="8.6" height="8.61"/><rect class="cls-4" x="43.02" y="34.42" width="8.6" height="8.6"/><rect class="cls-4" x="43.02" y="17.21" width="8.6" height="8.6"/><rect class="cls-4" x="34.42" y="68.84" width="8.6" height="8.6"/><rect class="cls-4" x="34.42" y="51.63" width="8.6" height="8.61"/><rect class="cls-4" x="34.42" y="43.03" width="8.6" height="8.6"/><rect class="cls-4" x="34.42" y="25.82" width="8.6" height="8.6"/><rect class="cls-4" x="34.42" y="17.21" width="8.6" height="8.6"/><rect class="cls-4" x="34.42" width="8.6" height="8.6"/><rect class="cls-4" x="25.81" y="51.63" width="8.61" height="8.61"/><rect class="cls-4" x="25.81" y="34.42" width="8.61" height="8.6"/><rect class="cls-4" x="25.81" y="17.21" width="8.61" height="8.6"/><rect class="cls-4" x="17.21" y="60.24" width="8.6" height="8.6"/><rect class="cls-4" x="17.21" y="43.03" width="8.6" height="8.6"/><rect class="cls-4" x="17.21" y="34.42" width="8.6" height="8.6"/><rect class="cls-4" x="17.21" y="25.82" width="8.6" height="8.6"/><rect class="cls-4" x="17.21" y="8.61" width="8.6" height="8.61"/><rect class="cls-4" x="8.6" y="51.63" width="8.6" height="8.61"/><rect class="cls-4" x="8.6" y="17.21" width="8.6" height="8.6"/><rect class="cls-4" y="34.42" width="8.6" height="8.6"/></g><g class="cls-1"><rect class="cls-2" x="258.67" y="68.84" width="8.6" height="8.6"/><rect class="cls-2" x="275.88" y="68.84" width="8.61" height="8.6"/><rect class="cls-2" x="241.47" y="60.23" width="8.6" height="8.6"/><rect class="cls-2" x="250.07" y="60.23" width="8.6" height="8.6"/><rect class="cls-2" x="284.49" y="60.23" width="8.6" height="8.6"/><rect class="cls-2" x="293.09" y="60.23" width="8.6" height="8.6"/><rect class="cls-2" x="241.47" y="51.63" width="8.6" height="8.6"/><rect class="cls-2" x="267.28" y="51.63" width="8.6" height="8.6"/><rect class="cls-2" x="293.09" y="51.63" width="8.6" height="8.6"/><rect class="cls-2" x="232.86" y="43.03" width="8.6" height="8.6"/><rect class="cls-2" x="258.67" y="43.03" width="8.6" height="8.6"/><rect class="cls-2" x="275.88" y="43.03" width="8.61" height="8.6"/><rect class="cls-2" x="301.7" y="43.03" width="8.6" height="8.6"/><rect class="cls-2" x="250.07" y="34.42" width="8.6" height="8.61"/><rect class="cls-2" x="267.28" y="34.42" width="8.6" height="8.61"/><rect class="cls-2" x="284.49" y="34.42" width="8.6" height="8.61"/><rect class="cls-2" x="232.86" y="25.81" width="8.6" height="8.6"/><rect class="cls-2" x="258.67" y="25.81" width="8.6" height="8.6"/><rect class="cls-2" x="275.88" y="25.81" width="8.61" height="8.6"/><rect class="cls-2" x="301.7" y="25.81" width="8.6" height="8.6"/><rect class="cls-2" x="241.47" y="17.21" width="8.6" height="8.6"/><rect class="cls-2" x="267.28" y="17.21" width="8.6" height="8.6"/><rect class="cls-2" x="293.09" y="17.21" width="8.6" height="8.6"/><rect class="cls-2" x="241.47" y="8.61" width="8.6" height="8.6"/><rect class="cls-2" x="250.07" y="8.61" width="8.6" height="8.6"/><rect class="cls-2" x="284.49" y="8.61" width="8.6" height="8.6"/><rect class="cls-2" x="293.09" y="8.61" width="8.6" height="8.6"/><rect class="cls-2" x="258.67" width="8.6" height="8.6"/><rect class="cls-2" x="275.88" width="8.61" height="8.6"/></g><g class="cls-1"><rect class="cls-2" x="413.56" y="146.28" width="8.6" height="8.6"/><rect class="cls-2" x="430.77" y="146.28" width="8.61" height="8.6"/><rect class="cls-2" x="396.35" y="137.68" width="8.6" height="8.6"/><rect class="cls-2" x="404.95" y="137.68" width="8.6" height="8.6"/><rect class="cls-2" x="439.37" y="137.68" width="8.6" height="8.6"/><rect class="cls-2" x="447.98" y="137.68" width="8.6" height="8.6"/><rect class="cls-2" x="396.35" y="129.08" width="8.6" height="8.6"/><rect class="cls-2" x="422.16" y="129.08" width="8.6" height="8.6"/><rect class="cls-2" x="447.98" y="129.08" width="8.6" height="8.6"/><rect class="cls-2" x="387.75" y="120.47" width="8.6" height="8.6"/><rect class="cls-2" x="413.56" y="120.47" width="8.6" height="8.6"/><rect class="cls-2" x="430.77" y="120.47" width="8.61" height="8.6"/><rect class="cls-2" x="456.58" y="120.47" width="8.6" height="8.6"/><rect class="cls-2" x="404.95" y="111.86" width="8.6" height="8.61"/><rect class="cls-2" x="422.16" y="111.86" width="8.6" height="8.61"/><rect class="cls-2" x="439.37" y="111.86" width="8.6" height="8.61"/><rect class="cls-2" x="387.75" y="103.26" width="8.6" height="8.6"/><rect class="cls-2" x="413.56" y="103.26" width="8.6" height="8.6"/><rect class="cls-2" x="430.77" y="103.26" width="8.61" height="8.6"/><rect class="cls-2" x="456.58" y="103.26" width="8.6" height="8.6"/><rect class="cls-2" x="396.35" y="94.66" width="8.6" height="8.6"/><rect class="cls-2" x="422.16" y="94.66" width="8.6" height="8.6"/><rect class="cls-2" x="447.98" y="94.66" width="8.6" height="8.6"/><rect class="cls-2" x="396.35" y="86.05" width="8.6" height="8.6"/><rect class="cls-2" x="404.95" y="86.05" width="8.6" height="8.6"/><rect class="cls-2" x="439.37" y="86.05" width="8.6" height="8.6"/><rect class="cls-2" x="447.98" y="86.05" width="8.6" height="8.6"/><rect class="cls-2" x="413.56" y="77.45" width="8.6" height="8.6"/><rect class="cls-2" x="430.77" y="77.45" width="8.61" height="8.6"/></g><g class="cls-1"><rect class="cls-3" x="336.12" y="68.84" width="8.6" height="8.61"/><rect class="cls-3" x="353.33" y="68.84" width="8.6" height="8.61"/><rect class="cls-3" x="318.91" y="60.23" width="8.61" height="8.6"/><rect class="cls-3" x="344.72" y="60.23" width="8.6" height="8.6"/><rect class="cls-3" x="370.54" y="60.23" width="8.61" height="8.6"/><rect class="cls-3" x="327.51" y="51.63" width="8.6" height="8.6"/><rect class="cls-3" x="344.72" y="51.63" width="8.6" height="8.6"/><rect class="cls-3" x="361.93" y="51.63" width="8.6" height="8.6"/><rect class="cls-3" x="310.3" y="43.02" width="8.6" height="8.6"/><rect class="cls-3" x="336.12" y="43.02" width="8.6" height="8.6"/><rect class="cls-3" x="353.33" y="43.02" width="8.6" height="8.6"/><rect class="cls-3" x="379.14" y="43.02" width="8.6" height="8.6"/><rect class="cls-3" x="318.91" y="34.42" width="8.61" height="8.6"/><rect class="cls-3" x="327.51" y="34.42" width="8.6" height="8.6"/><rect class="cls-3" x="361.93" y="34.42" width="8.6" height="8.6"/><rect class="cls-3" x="370.54" y="34.42" width="8.61" height="8.6"/><rect class="cls-3" x="310.3" y="25.81" width="8.6" height="8.61"/><rect class="cls-3" x="336.12" y="25.81" width="8.6" height="8.61"/><rect class="cls-3" x="353.33" y="25.81" width="8.6" height="8.61"/><rect class="cls-3" x="379.14" y="25.81" width="8.6" height="8.61"/><rect class="cls-3" x="327.51" y="17.21" width="8.6" height="8.6"/><rect class="cls-3" x="344.72" y="17.21" width="8.6" height="8.6"/><rect class="cls-3" x="361.93" y="17.21" width="8.6" height="8.6"/><rect class="cls-3" x="318.91" y="8.6" width="8.61" height="8.6"/><rect class="cls-3" x="344.72" y="8.6" width="8.6" height="8.6"/><rect class="cls-3" x="370.54" y="8.6" width="8.61" height="8.6"/><rect class="cls-3" x="336.12" width="8.6" height="8.6"/><rect class="cls-3" x="353.33" width="8.6" height="8.6"/></g><g class="cls-1"><rect class="cls-3" x="413.56" y="223.72" width="8.6" height="8.61"/><rect class="cls-3" x="430.77" y="223.72" width="8.6" height="8.61"/><rect class="cls-3" x="396.35" y="215.12" width="8.61" height="8.6"/><rect class="cls-3" x="422.16" y="215.12" width="8.6" height="8.6"/><rect class="cls-3" x="447.98" y="215.12" width="8.61" height="8.6"/><rect class="cls-3" x="404.95" y="206.52" width="8.6" height="8.6"/><rect class="cls-3" x="422.16" y="206.52" width="8.6" height="8.6"/><rect class="cls-3" x="439.37" y="206.52" width="8.6" height="8.6"/><rect class="cls-3" x="387.74" y="197.91" width="8.6" height="8.6"/><rect class="cls-3" x="413.56" y="197.91" width="8.6" height="8.6"/><rect class="cls-3" x="430.77" y="197.91" width="8.6" height="8.6"/><rect class="cls-3" x="456.58" y="197.91" width="8.6" height="8.6"/><rect class="cls-3" x="396.35" y="189.31" width="8.61" height="8.6"/><rect class="cls-3" x="404.95" y="189.31" width="8.6" height="8.6"/><rect class="cls-3" x="439.37" y="189.31" width="8.6" height="8.6"/><rect class="cls-3" x="447.98" y="189.31" width="8.61" height="8.6"/><rect class="cls-3" x="387.74" y="180.7" width="8.6" height="8.61"/><rect class="cls-3" x="413.56" y="180.7" width="8.6" height="8.61"/><rect class="cls-3" x="430.77" y="180.7" width="8.6" height="8.61"/><rect class="cls-3" x="456.58" y="180.7" width="8.6" height="8.61"/><rect class="cls-3" x="404.95" y="172.1" width="8.6" height="8.6"/><rect class="cls-3" x="422.16" y="172.1" width="8.6" height="8.6"/><rect class="cls-3" x="439.37" y="172.1" width="8.6" height="8.6"/><rect class="cls-3" x="396.35" y="163.49" width="8.61" height="8.6"/><rect class="cls-3" x="422.16" y="163.49" width="8.6" height="8.6"/><rect class="cls-3" x="447.98" y="163.49" width="8.61" height="8.6"/><rect class="cls-3" x="413.56" y="154.89" width="8.6" height="8.6"/><rect class="cls-3" x="430.77" y="154.89" width="8.6" height="8.6"/></g><g class="cls-1"><rect class="cls-4" x="422.16" y="68.84" width="8.6" height="8.61"/><rect class="cls-4" x="404.95" y="60.23" width="8.61" height="8.6"/><rect class="cls-4" x="439.37" y="60.23" width="8.6" height="8.6"/><rect class="cls-4" x="396.35" y="51.63" width="8.6" height="8.6"/><rect class="cls-4" x="413.56" y="51.63" width="8.6" height="8.6"/><rect class="cls-4" x="422.16" y="51.63" width="8.6" height="8.6"/><rect class="cls-4" x="430.77" y="51.63" width="8.6" height="8.6"/><rect class="cls-4" x="447.98" y="51.63" width="8.61" height="8.6"/><rect class="cls-4" x="404.95" y="43.02" width="8.61" height="8.6"/><rect class="cls-4" x="422.16" y="43.02" width="8.6" height="8.6"/><rect class="cls-4" x="439.37" y="43.02" width="8.6" height="8.6"/><rect class="cls-4" x="387.74" y="34.42" width="8.6" height="8.6"/><rect class="cls-4" x="404.95" y="34.42" width="8.61" height="8.6"/><rect class="cls-4" x="413.56" y="34.42" width="8.6" height="8.6"/><rect class="cls-4" x="430.77" y="34.42" width="8.6" height="8.6"/><rect class="cls-4" x="439.37" y="34.42" width="8.6" height="8.6"/><rect class="cls-4" x="456.58" y="34.42" width="8.6" height="8.6"/><rect class="cls-4" x="404.95" y="25.81" width="8.61" height="8.61"/><rect class="cls-4" x="422.16" y="25.81" width="8.6" height="8.61"/><rect class="cls-4" x="439.37" y="25.81" width="8.6" height="8.61"/><rect class="cls-4" x="396.35" y="17.21" width="8.6" height="8.6"/><rect class="cls-4" x="413.56" y="17.21" width="8.6" height="8.6"/><rect class="cls-4" x="422.16" y="17.21" width="8.6" height="8.6"/><rect class="cls-4" x="430.77" y="17.21" width="8.6" height="8.6"/><rect class="cls-4" x="447.98" y="17.21" width="8.61" height="8.6"/><rect class="cls-4" x="404.95" y="8.6" width="8.61" height="8.6"/><rect class="cls-4" x="439.37" y="8.6" width="8.6" height="8.6"/><rect class="cls-4" x="422.16" width="8.6" height="8.6"/></g><rect x="293.04" y="167.87" width="17.21" height="17.21"/><rect x="275.84" y="253.9" width="17.21" height="17.21"/><rect x="275.84" y="202.29" width="17.21" height="17.21"/><rect x="275.84" y="185.08" width="17.21" height="17.21"/><rect x="258.63" y="253.9" width="17.21" height="17.21"/><rect x="258.63" y="219.49" width="17.21" height="17.21"/><rect x="258.63" y="202.29" width="17.21" height="17.21"/><rect x="241.43" y="288.32" width="17.21" height="17.21"/><rect x="241.43" y="271.11" width="17.21" height="17.21"/><rect x="241.43" y="236.7" width="17.21" height="17.21"/><rect x="241.43" y="219.49" width="17.21" height="17.21"/><rect x="224.21" y="305.53" width="17.21" height="17.21"/><rect x="224.21" y="236.7" width="17.21" height="17.21"/><rect x="207.01" y="288.32" width="17.21" height="17.21"/><rect x="207.01" y="271.11" width="17.21" height="17.21"/><rect x="207.01" y="236.7" width="17.21" height="17.21"/><rect x="207.01" y="219.49" width="17.21" height="17.21"/><rect x="189.8" y="253.9" width="17.21" height="17.21"/><rect x="189.8" y="219.49" width="17.21" height="17.21"/><rect x="189.8" y="202.29" width="17.21" height="17.21"/><rect x="172.6" y="253.9" width="17.21" height="17.21"/><rect x="172.6" y="202.29" width="17.21" height="17.21"/><rect x="172.6" y="185.08" width="17.21" height="17.21"/><rect x="155.39" y="167.87" width="17.21" height="17.21"/></g></g></svg>